<?xml version="1.0" encoding="utf-8"?>
<!-- Generator: Adobe Illustrator 25.2.0, SVG Export Plug-In . SVG Version: 6.00 Build 0)  -->
<svg version="1.1" id="Capa_1" xmlns="http://www.w3.org/2000/svg" xmlns:xlink="http://www.w3.org/1999/xlink" x="0px" y="0px"
	 width="200px" height="50px" viewBox="0 0 200 50" style="enable-background:new 0 0 200 50;" xml:space="preserve">
<style type="text/css">
	.st0{fill:#F3D417;}
	.st1{fill:#FFFFFF;}
</style>
<g id="Capa_2_1_">
	<g id="Capa_1-2">
		<path class="st0" d="M39.3,14.2c-1.2-2.1-2.8-3.7-4.9-4.9c-2.2-1.2-4.7-1.8-7.2-1.8h-3.1l0,0H13.9c-2.5-0.1-5,0.6-7.2,1.8
			c-2.1,1.2-3.8,2.8-4.9,4.9C0.6,16.3,0,18.8,0,21.3h7.3c0-2.4,0.6-4.2,1.7-5.7s2.7-2.2,4.8-2.2h3.1V35h10.3c2.5,0.1,5-0.6,7.2-1.8
			c2.1-1.2,3.8-2.8,4.9-4.9c1.2-2.2,1.8-4.6,1.8-7C41.1,18.8,40.5,16.3,39.3,14.2z M32,27c-1.2,1.5-2.7,2.2-4.8,2.2h-3.1V13.4h3.1
			c1.9-0.1,3.7,0.7,4.8,2.2c1.1,1.4,1.7,3.3,1.7,5.7S33.1,25.5,32,27z"/>
		<path class="st1" d="M53.4,28.5l4-12.9h6.9L56,37.4c-0.4,1-0.8,2-1.4,2.9c-0.4,0.7-1,1.2-1.7,1.6c-0.8,0.4-1.7,0.6-2.6,0.6h-5.9
			v-5.3h3c0.5,0.1,1-0.1,1.4-0.3c0.4-0.3,0.6-0.7,0.7-1.1l0.3-0.7l-7.4-19.6h6.9L53.4,28.5z"/>
		<path class="st1" d="M86,24.6V35h-6.5V24.9c0-1.5-0.3-2.6-0.8-3.3c-0.6-0.8-1.5-1.2-2.5-1.1c-1-0.1-2,0.4-2.6,1.1
			c-0.6,0.8-0.9,1.9-0.9,3.3v10.1h-6.5V15.5h5.7l0.5,2.3c0.7-0.8,1.5-1.5,2.4-1.9c1.1-0.5,2.2-0.7,3.4-0.7c2.1-0.1,4,0.7,5.5,2.1
			C85.3,18.8,86,21.2,86,24.6z"/>
		<path class="st1" d="M109.1,35h-3.4c-1.3,0-2.2-0.3-2.8-0.8c-0.6-0.6-0.9-1.4-0.9-2.2v-0.2c-0.7,1.1-1.6,1.9-2.6,2.5
			c-1.1,0.6-2.3,0.9-3.6,0.9c-2.2,0-3.9-0.5-5.3-1.5c-1.4-1-2.1-2.6-2-4.2c-0.1-2,0.9-3.8,2.5-4.9c1.6-1.2,4-1.7,7.1-1.7h2.9v-0.8
			c0-0.7-0.3-1.3-0.8-1.6c-0.6-0.5-1.4-0.7-2.1-0.6c-0.7-0.1-1.4,0.2-2,0.5c-0.5,0.3-0.8,0.8-0.9,1.4H89c0.1-1.9,1.1-3.7,2.8-4.7
			c1.7-1.1,3.9-1.7,6.6-1.7c2.9,0,5.1,0.6,6.7,1.8c1.6,1.2,2.4,3,2.4,5.3v6c-0.1,0.4,0.1,0.7,0.3,0.9c0.3,0.2,0.6,0.3,0.9,0.3h0.5
			L109.1,35z M98.3,26.9c-0.8-0.1-1.6,0.2-2.3,0.6c-0.5,0.4-0.9,1-0.8,1.6c0,0.5,0.2,1,0.6,1.3c0.5,0.4,1,0.5,1.6,0.5
			c1,0.1,2-0.3,2.7-1c0.7-0.8,1.1-1.8,1.1-2.8v-0.1H98.3z"/>
		<path class="st1" d="M142.5,24.6V35H136V24.2c0.1-1-0.2-1.9-0.7-2.8c-0.5-0.7-1.3-1-2.1-0.9c-0.9-0.1-1.7,0.3-2.3,1
			c-0.6,0.8-0.9,1.8-0.9,2.7V35h-6.5V24.2c0.1-1-0.2-1.9-0.6-2.8c-0.5-0.7-1.3-1-2.1-0.9c-0.9-0.1-1.7,0.3-2.3,1
			c-0.6,0.8-0.9,1.8-0.9,2.7V35h-6.5V15.5h5.7l0.5,2.3c0.7-0.8,1.5-1.5,2.4-1.9c1.1-0.5,2.2-0.7,3.4-0.7c2.7,0,4.6,1,5.6,3.1
			c0.7-1,1.7-1.8,2.8-2.3c1.2-0.6,2.5-0.8,3.8-0.8c1.9-0.1,3.7,0.7,5,2.1C141.8,18.8,142.5,21.2,142.5,24.6z"/>
		<path class="st1" d="M163.6,8.7v5.9h-11.2v4.5h8.9v5.5h-8.9v4.6H164V35h-18.6V8.7H163.6z"/>
		<path class="st1" d="M186.2,35H183c-1.3,0-2.2-0.3-2.8-0.8c-0.6-0.6-0.9-1.4-0.9-2.2v-0.2c-0.7,1.1-1.6,1.9-2.6,2.5
			c-1.1,0.6-2.4,0.9-3.6,0.9c-2.2,0-3.9-0.5-5.3-1.5c-1.4-1-2.1-2.6-2-4.2c-0.1-2,0.9-3.8,2.5-4.9c1.6-1.2,4-1.7,7-1.7h2.9v-0.8
			c0-0.7-0.3-1.3-0.8-1.6c-0.6-0.5-1.4-0.7-2.1-0.6c-0.7-0.1-1.4,0.2-2,0.5c-0.5,0.3-0.8,0.8-0.8,1.4h-6.2c0.1-1.9,1.1-3.7,2.7-4.7
			c1.7-1.1,3.9-1.7,6.6-1.7c2.9,0,5.1,0.6,6.7,1.8c1.6,1.2,2.4,3,2.4,5.3v6c-0.1,0.4,0.1,0.7,0.3,0.9c0.3,0.2,0.6,0.3,0.9,0.3h0.3
			L186.2,35z M175.5,26.9c-0.8-0.1-1.6,0.2-2.3,0.6c-0.5,0.4-0.9,1-0.8,1.6c0,0.5,0.2,1,0.6,1.3c0.5,0.4,1,0.5,1.6,0.5
			c1,0.1,2-0.3,2.7-1c0.7-0.8,1.1-1.8,1-2.8v-0.1H175.5z"/>
		<path class="st1" d="M186.3,20.9v-5.4h3.4v-5.4h6.5v5.4h3.8v5.4h-3.8v6.9c-0.1,0.5,0.1,1,0.4,1.4c0.4,0.3,0.9,0.5,1.4,0.4h2.1V35
			h-4.5c-1.9,0-3.3-0.5-4.3-1.5c-1.1-1-1.5-2.4-1.5-4.3v-8.2H186.3z"/>
	</g>
</g>
</svg>
